<?xml version="1.0" standalone="no"?>
<!DOCTYPE svg PUBLIC "-//W3C//DTD SVG 20010904//EN"
 "http://www.w3.org/TR/2001/REC-SVG-20010904/DTD/svg10.dtd">
<svg version="1.0" xmlns="http://www.w3.org/2000/svg"
 width="576.000000pt" height="576.000000pt" viewBox="0 0 576.000000 576.000000"
 preserveAspectRatio="xMidYMid meet">
<metadata>
Created by potrace 1.14, written by Peter Selinger 2001-2017
</metadata>
<g transform="translate(0.000000,576.000000) scale(0.100000,-0.100000)"
fill="#000000" stroke="none">
<path d="M2970 5450 c-25 -5 -118 -9 -206 -9 -192 -1 -612 -41 -804 -76 -74
-14 -179 -29 -232 -35 -110 -11 -153 -26 -253 -86 -38 -23 -95 -54 -125 -69
-30 -15 -82 -48 -115 -73 -86 -65 -253 -226 -299 -286 -40 -54 -120 -211 -132
-261 -3 -17 -26 -77 -49 -135 -76 -186 -132 -390 -170 -615 -20 -115 -47 -244
-61 -285 -20 -58 -32 -128 -50 -305 -13 -126 -24 -265 -24 -307 0 -50 -13
-137 -36 -245 -31 -145 -36 -192 -41 -348 -4 -158 -3 -192 16 -283 84 -403
290 -774 550 -993 118 -98 145 -114 224 -128 49 -9 70 -20 129 -68 169 -140
159 -135 271 -153 56 -10 133 -21 172 -25 64 -6 97 -21 387 -166 l317 -159
343 0 c189 -1 420 -5 513 -10 94 -5 269 -12 390 -16 l221 -7 99 89 c55 49 235
193 400 321 437 337 608 484 831 716 214 222 234 248 251 324 54 257 56 287
60 875 l4 558 -47 117 c-27 65 -95 213 -152 328 -110 223 -179 381 -257 588
l-48 127 -127 110 c-131 112 -345 332 -532 545 -58 66 -132 146 -164 177 -53
52 -67 60 -137 77 -42 11 -140 45 -217 75 -77 30 -186 70 -242 88 l-103 32
-255 2 c-140 1 -275 -2 -300 -6z m545 -100 c12 -5 -94 -9 -260 -9 -184 -1
-275 3 -265 9 19 12 497 12 525 0z m-1380 -70 c-33 -11 -67 -20 -76 -20 -9 0
-43 -13 -75 -29 -32 -16 -97 -41 -144 -56 -98 -31 -205 -86 -284 -145 -52 -39
-68 -63 -82 -123 -5 -23 -21 -36 -83 -67 -104 -52 -212 -148 -266 -235 -24
-38 -62 -117 -85 -175 -23 -58 -54 -125 -70 -150 -16 -25 -42 -73 -58 -107
-16 -34 -47 -83 -69 -110 -22 -26 -63 -79 -91 -116 -29 -38 -52 -64 -52 -58 0
53 82 335 135 461 15 36 39 101 55 145 68 193 110 259 260 401 123 117 163
147 273 207 51 27 120 65 154 84 49 27 80 36 150 44 94 10 147 19 313 48 136
25 171 25 95 1z m1715 -45 c74 -29 165 -61 202 -70 64 -16 71 -21 150 -104
117 -122 197 -216 171 -203 -11 7 -106 69 -210 139 -103 70 -221 149 -262 177
-41 27 -108 67 -150 89 -91 46 -78 43 99 -28z m-169 -51 c84 -41 414 -251 464
-296 17 -15 -63 20 -190 83 -115 57 -186 78 -347 104 -25 4 -63 27 -123 75
-93 76 -95 76 -205 60 -36 -5 -162 -16 -280 -25 -118 -8 -267 -22 -330 -30
-63 -8 -176 -22 -250 -31 -157 -19 -322 -59 -453 -110 -101 -39 -161 -58 -222
-68 -36 -6 -27 2 88 78 120 79 133 85 215 100 125 23 489 75 607 86 55 6 120
14 145 19 25 5 209 8 410 7 l365 -1 106 -51z m-297 -79 c18 -13 4 -15 -125
-14 l-144 2 105 12 c143 16 142 16 164 0z m-329 -125 c-11 -5 -81 -18 -155
-29 -74 -12 -173 -27 -220 -35 -47 -8 -170 -22 -275 -31 -331 -28 -393 -35
-473 -56 -103 -26 -300 -123 -390 -193 -39 -31 -72 -53 -72 -50 0 2 21 27 46
54 56 60 313 217 384 236 54 14 416 88 500 102 71 12 682 14 655 2z m506 -23
c24 -17 43 -37 43 -42 2 -22 -65 -16 -119 10 -33 16 -78 29 -117 32 -35 3 -74
12 -88 19 -22 12 -9 13 107 14 l131 0 43 -33z m229 -22 l35 -13 -36 -1 c-21
-1 -42 5 -49 14 -16 19 0 19 50 0z m-1050 -136 c-130 -21 -156 -22 -120 -7 31
13 120 25 185 26 36 0 17 -5 -65 -19z m1099 -97 c170 -159 298 -271 377 -329
61 -44 93 -87 133 -176 2 -5 -79 48 -180 116 -101 69 -228 148 -281 177 l-98
52 -56 106 c-31 59 -65 119 -75 134 -17 25 -17 27 -1 31 44 12 60 2 181 -111z
m208 96 c16 -13 57 -48 89 -78 54 -50 61 -62 78 -125 10 -38 20 -78 23 -87 2
-10 0 -18 -4 -18 -10 0 -181 148 -296 256 l-79 74 79 0 c66 0 84 -4 110 -22z
m-623 -75 c31 -43 56 -82 56 -87 0 -5 -48 -6 -112 -2 -62 4 -185 11 -273 15
-151 9 -292 23 -360 38 -22 4 10 12 120 30 83 12 195 32 250 43 55 11 134 24
175 29 41 5 78 9 82 10 4 0 32 -34 62 -76z m143 19 c20 -27 73 -126 73 -137 0
-14 -29 -2 -35 15 -3 10 -28 53 -56 95 -27 42 -49 78 -49 81 0 10 47 -27 67
-54z m1018 -303 c100 -156 180 -286 178 -288 -9 -11 -71 64 -149 179 -125 182
-179 259 -224 315 -55 69 -110 144 -110 149 0 3 28 -12 62 -33 61 -37 65 -42
243 -322z m-2247 325 c-20 -11 -69 -15 -185 -17 -101 -2 -142 0 -113 5 49 9
222 25 285 26 l40 1 -27 -15z m2554 -413 c64 -51 69 -58 104 -150 20 -53 56
-143 79 -201 24 -58 51 -123 59 -145 l16 -40 -31 35 c-77 87 -250 329 -386
542 -82 128 -153 240 -158 248 -5 8 50 -41 121 -110 71 -69 159 -149 196 -179z
m-2339 263 c95 -15 215 -32 267 -39 87 -11 92 -12 57 -20 -22 -4 -96 -5 -165
-1 -70 3 -202 10 -294 14 -92 5 -170 11 -173 14 -6 6 45 40 75 51 27 10 59 7
233 -19z m-1255 -81 c-36 -43 -98 -122 -138 -176 -40 -54 -75 -96 -77 -93 -2
2 21 45 52 95 52 84 211 268 223 257 2 -3 -25 -40 -60 -83z m3140 -121 c67
-91 86 -122 77 -122 -3 0 -37 21 -75 46 -64 42 -71 50 -85 97 -9 29 -18 70
-21 92 l-6 40 23 -33 c13 -19 53 -73 87 -120z m-2978 58 c0 -9 -31 -23 -37
-17 -2 2 -1 11 3 20 5 15 34 13 34 -3z m2265 -12 c7 -7 2 -8 -15 -3 -14 4 -29
12 -35 17 -7 7 -2 8 15 3 14 -4 30 -12 35 -17z m-815 -52 l115 -23 -80 -6
c-44 -4 -267 -11 -495 -16 -228 -5 -442 -12 -475 -15 l-60 -6 45 15 c59 20
226 53 320 64 41 5 174 9 295 9 191 1 235 -2 335 -22z m-1155 -5 c-27 -11 -84
-29 -125 -41 -100 -31 -140 -52 -234 -123 -44 -33 -77 -54 -74 -46 3 8 13 37
22 65 l17 51 117 56 117 57 105 -1 105 0 -50 -18z m1398 -136 c123 -19 323
-67 242 -59 -89 8 -178 22 -255 38 -41 8 -100 19 -130 24 l-55 9 47 2 c26 0
94 -6 151 -14z m-935 -22 c-21 -2 -57 -2 -80 0 -24 2 -7 4 37 4 44 0 63 -2 43
-4z m-220 -8 c-5 -5 -84 -17 -193 -29 -45 -5 -47 -5 -17 4 59 19 223 38 210
25z m-810 -125 c-31 -95 -36 -103 -70 -121 -20 -10 -41 -19 -47 -19 -9 0 0 56
19 106 11 28 120 147 128 140 2 -3 -11 -50 -30 -106z m3327 62 c-3 -3 -11 0
-18 7 -9 10 -8 11 6 5 10 -3 15 -9 12 -12z m-777 -29 c-10 -2 -28 -2 -40 0
-13 2 -5 4 17 4 22 1 32 -1 23 -4z m-553 -25 c44 -10 143 -24 220 -32 161 -18
229 -34 373 -88 120 -44 184 -76 258 -125 29 -20 85 -44 124 -54 81 -22 461
-206 472 -229 74 -151 108 -242 108 -292 0 -45 -57 -83 -148 -98 -42 -6 -99
-19 -127 -27 -27 -9 -79 -18 -115 -20 -61 -5 -71 -3 -140 32 -106 53 -285 121
-355 135 -33 6 -109 33 -170 60 -111 49 -276 103 -349 115 -22 4 -90 23 -150
43 l-111 37 -340 0 c-331 -1 -343 -1 -467 -28 -70 -15 -139 -27 -153 -27 -14
0 -63 15 -108 33 l-82 32 -195 0 c-177 -1 -202 -3 -265 -24 -38 -13 -80 -29
-92 -37 -11 -7 -41 -13 -65 -12 -23 0 -56 -3 -71 -7 -33 -9 -55 8 -92 70 l-25
43 53 137 52 137 135 65 c235 114 272 125 565 164 44 5 82 12 84 15 3 3 251 4
551 2 463 -3 557 -6 625 -20z m1583 -102 c34 -27 61 -51 59 -53 -2 -1 -28 5
-58 15 -44 15 -58 26 -76 58 -40 69 -36 68 75 -20z m-592 -93 c-6 -7 -74 16
-81 27 -3 5 15 2 40 -7 25 -8 44 -17 41 -20z m-3226 -47 c0 -15 -40 -69 -47
-63 -2 3 3 21 11 41 15 36 36 49 36 22z m3488 -46 c83 -29 156 -71 142 -83 -3
-2 -63 25 -135 60 -71 35 -123 61 -115 59 8 -2 57 -19 108 -36z m506 5 c48 0
61 -4 77 -24 14 -17 16 -27 9 -36 -5 -7 -16 -28 -23 -47 l-12 -36 -85 81 c-71
67 -80 79 -55 72 17 -5 56 -9 89 -10z m-4202 -300 c-10 -49 -19 -75 -28 -75
-8 0 -14 2 -14 3 0 3 33 103 45 135 12 32 11 5 -3 -63z m138 -103 c9 -51 7
-58 -37 -158 -25 -58 -47 -103 -49 -101 -5 5 28 247 48 354 l12 68 8 -55 c5
-30 13 -79 18 -108z m4108 107 c3 -24 2 -24 -13 -4 -9 11 -21 29 -27 40 -11
19 -10 19 13 4 13 -9 25 -27 27 -40z m167 -139 c59 -192 89 -385 75 -476 -10
-61 -40 -158 -59 -191 -7 -13 -10 62 -11 254 l0 271 -49 72 c-41 61 -48 77
-41 100 4 14 11 55 15 90 5 39 10 58 15 49 5 -8 29 -84 55 -169z m79 120 c7
-41 -8 -21 -18 25 -5 19 -4 26 2 20 5 -5 12 -26 16 -45z m-3296 -49 l43 -17
-104 -13 c-58 -8 -118 -11 -133 -8 -45 8 -134 41 -134 50 0 4 64 7 143 6 111
0 151 -4 185 -18z m1221 -30 c69 -22 151 -44 181 -50 31 -5 78 -18 105 -29 28
-11 67 -22 87 -26 21 -4 40 -11 42 -15 3 -5 -25 -2 -62 6 -100 21 -361 44
-592 53 -138 5 -223 12 -260 23 -30 9 -117 23 -194 31 -76 8 -141 17 -143 20
-3 2 22 7 54 11 32 4 63 8 68 10 6 2 140 4 299 4 l289 1 126 -39z m-2119 -37
c0 -17 -5 -24 -19 -24 -18 0 -19 3 -10 30 12 34 29 31 29 -6z m516 -17 c24 -6
44 -14 44 -17 0 -11 -394 -110 -437 -110 -43 0 -12 28 65 60 42 17 95 44 117
61 37 28 44 29 104 24 35 -3 84 -11 107 -18z m3853 -111 l51 -125 0 -373 c-1
-468 -11 -650 -46 -867 l-28 -171 -137 -148 c-136 -148 -333 -336 -491 -469
-110 -92 -118 -96 -71 -32 102 140 160 251 246 474 26 66 88 192 138 280 50
88 107 192 126 230 20 39 62 115 94 170 32 55 72 131 90 168 l32 68 -6 277
c-5 252 -21 433 -52 610 -3 17 -4 32 -2 32 3 0 28 -56 56 -124z m-372 -12 c27
-36 27 -39 30 -203 2 -100 0 -158 -6 -146 -8 19 -44 167 -72 297 -19 92 1 113
48 52z m-2286 -13 c54 -16 108 -20 340 -24 303 -6 323 -9 539 -93 120 -46 232
-73 349 -82 94 -8 107 -12 203 -62 57 -29 135 -76 174 -106 l72 -53 17 -97
c17 -95 17 -98 -4 -169 -11 -41 -21 -89 -21 -109 0 -22 -7 -43 -19 -55 -10
-10 -31 -56 -47 -101 -33 -97 -53 -112 -107 -80 -19 11 -73 29 -120 39 -72 16
-99 28 -176 79 -50 34 -110 66 -134 73 -86 23 -244 78 -328 113 -122 51 -156
57 -399 65 -229 9 -335 25 -495 78 -77 25 -89 27 -310 27 -190 1 -243 -2 -305
-17 -41 -10 -102 -22 -136 -26 -34 -5 -79 -18 -100 -29 -72 -38 -192 -92 -202
-92 -6 0 -35 14 -64 31 -29 18 -72 40 -96 50 -23 10 -45 26 -49 36 -4 10 -37
72 -75 137 -65 113 -68 121 -57 153 14 42 110 123 199 165 36 17 81 41 101 54
46 29 116 43 254 54 61 4 148 15 195 24 64 12 149 16 340 17 140 0 275 4 300
8 72 13 94 12 161 -8z m2125 -47 c5 -26 0 -55 -14 -98 -12 -33 -24 -78 -28
-100 l-7 -38 -49 4 c-26 3 -51 8 -54 11 -4 3 2 21 13 39 11 18 25 49 31 68 14
38 83 149 94 150 4 0 10 -16 14 -36z m-3836 -142 c0 -10 -7 -27 -15 -38 -14
-19 -14 -19 -15 3 0 28 10 53 21 53 5 0 9 -8 9 -18z m-159 -250 c5 -196 11
-268 28 -350 31 -151 27 -174 -13 -75 -27 65 -38 114 -54 240 -38 289 -38 304
-7 378 16 36 31 63 34 59 3 -3 9 -117 12 -252z m3746 213 c-18 -39 -25 -45
-51 -44 -70 1 -71 13 -4 51 35 20 66 36 69 37 4 1 -3 -19 -14 -44z m341 -182
c28 -134 27 -152 -18 -248 -23 -50 -49 -106 -57 -125 -13 -29 -16 -31 -24 -17
-16 27 37 409 58 425 26 19 31 15 41 -35z m-177 27 c11 0 19 -7 19 -15 0 -12
-4 -13 -19 -5 -29 15 -48 12 -69 -10 -19 -20 -19 -20 -30 5 -17 38 -16 38 34
31 26 -3 55 -6 65 -6z m-4204 -32 c-3 -7 -5 -2 -5 12 0 14 2 19 5 13 2 -7 2
-19 0 -25z m493 -38 c0 -11 11 -50 25 -86 14 -37 24 -69 22 -71 -8 -8 -78 149
-73 163 8 21 26 17 26 -6z m4240 -150 l0 -135 -55 -110 c-31 -60 -64 -121 -75
-135 l-20 -25 0 102 c0 99 1 106 49 225 27 68 57 149 67 181 11 37 21 53 26
45 4 -7 8 -74 8 -148z m-2807 -67 c-7 -2 -19 -2 -25 0 -7 3 -2 5 12 5 14 0 19
-2 13 -5z m-1350 -115 c20 -17 29 -36 33 -69 l6 -46 -47 -27 c-27 -14 -50 -24
-53 -21 -6 6 -41 207 -42 239 0 15 7 12 38 -17 20 -19 49 -46 65 -59z m166 56
c2 -2 -5 -4 -16 -4 -12 0 -23 7 -27 15 -5 13 -2 14 17 4 12 -6 24 -13 26 -15z
m1221 -75 c36 -4 124 -8 195 -9 72 0 173 -6 225 -15 129 -20 338 -45 377 -45
21 0 68 -20 130 -55 91 -51 230 -105 272 -105 10 0 38 -14 62 -32 52 -38 206
-111 268 -128 46 -12 96 -56 112 -98 13 -35 11 -102 -7 -151 -37 -107 -60
-125 -117 -91 -22 13 -60 23 -102 26 -56 4 -72 1 -101 -17 -19 -11 -34 -24
-34 -29 0 -4 -19 -26 -41 -49 -36 -36 -47 -41 -86 -41 -28 0 -55 7 -71 19 -15
10 -50 30 -79 45 -29 14 -75 46 -103 71 -78 69 -176 115 -247 115 -32 0 -112
9 -178 20 -66 11 -185 27 -265 35 -80 8 -181 24 -225 36 -113 29 -384 38 -454
15 -28 -9 -60 -16 -73 -16 -49 -1 -248 -59 -304 -89 -56 -30 -61 -31 -186 -31
-147 0 -133 -13 -142 125 -4 44 -17 124 -30 177 l-23 98 71 65 c65 60 75 65
116 65 47 0 173 32 194 49 23 19 163 28 371 24 193 -4 215 -3 270 16 41 14 73
19 100 15 22 -3 69 -10 105 -15z m1995 -79 c-9 -38 -22 -73 -28 -77 -7 -4 -8
0 -2 13 4 10 12 42 18 69 13 68 17 79 23 72 4 -3 -1 -38 -11 -77z m196 -15
c-20 -99 -73 -287 -96 -341 -9 -23 -21 -34 -34 -34 -19 0 -18 5 16 98 20 53
53 153 75 222 47 153 47 154 53 148 2 -2 -4 -44 -14 -93z m-4197 -276 c79
-259 188 -543 245 -637 22 -37 41 -73 41 -79 0 -15 76 -130 124 -188 l41 -49
-38 29 c-91 71 -260 313 -331 474 -53 119 -118 317 -140 424 -19 92 -32 279
-17 256 5 -8 39 -112 75 -230z m192 -142 c14 -76 32 -160 40 -188 28 -95 7
-60 -39 63 -81 221 -91 260 -79 331 6 34 14 85 18 112 7 47 8 44 21 -65 7 -63
24 -177 39 -253z m3738 126 c-9 -48 -9 -49 -39 -33 l-25 14 27 28 c36 38 45
35 37 -9z m-3199 -69 l8 -49 -21 26 c-14 17 -20 36 -17 55 2 16 4 36 5 44 2
24 18 -22 25 -76z m3148 -82 c15 -17 15 -24 -3 -97 -26 -109 -75 -267 -101
-323 l-21 -47 -15 50 c-8 27 -28 68 -44 90 l-30 41 51 92 c27 51 53 111 56
132 5 30 11 40 25 40 11 0 27 9 36 20 21 25 26 25 46 2z m-2164 -36 c-2 -2
-42 -6 -89 -9 -51 -3 -77 -2 -65 3 19 8 163 14 154 6z m2341 -2 c0 -9 -63 -94
-67 -90 -2 2 2 24 9 50 10 38 16 46 35 46 13 0 23 -3 23 -6z m-1940 -73 c-8
-5 -76 -11 -150 -14 -117 -4 -131 -3 -105 8 33 15 281 20 255 6z m-342 -28
c-10 -2 -28 -2 -40 0 -13 2 -5 4 17 4 22 1 32 -1 23 -4z m687 -116 c111 -26
136 -36 169 -65 21 -19 71 -50 110 -69 39 -19 60 -32 46 -29 -14 3 -53 8 -85
12 -48 5 -98 25 -248 100 -199 99 -198 101 8 51z m-2195 -12 c0 -5 -5 -3 -10
5 -5 8 -10 20 -10 25 0 6 5 3 10 -5 5 -8 10 -19 10 -25z m2480 9 c27 -14 54
-32 61 -41 12 -13 9 -13 -25 1 -52 22 -113 66 -91 66 3 0 28 -12 55 -26z
m-2023 -14 c9 -17 25 -33 35 -36 13 -4 18 -15 18 -39 0 -19 -4 -36 -9 -39 -8
-5 -91 120 -91 137 0 19 31 3 47 -23z m1299 15 c103 -18 243 -63 312 -100 l47
-26 -70 5 c-38 3 -117 9 -175 12 -67 5 -119 14 -145 25 -27 13 -64 19 -115 19
-60 0 -94 7 -170 34 -88 32 -92 34 -60 38 88 11 293 7 376 -7z m-1430 -47 c14
-28 50 -89 80 -135 42 -65 54 -92 54 -123 0 -23 -5 -40 -11 -40 -17 0 -156
139 -189 189 -33 49 -38 82 -15 101 8 7 15 23 15 36 0 17 6 24 20 24 14 0 28
-16 46 -52z m2849 42 c3 -5 -14 -14 -37 -21 -24 -6 -47 -13 -51 -16 -5 -3 -4
4 2 15 14 25 74 41 86 22z m-2166 -29 l86 -17 -50 -13 c-27 -7 -83 -26 -123
-42 -98 -39 -165 -40 -204 -2 -15 15 -28 31 -28 35 0 21 176 71 214 61 10 -3
57 -13 105 -22z m-959 -63 c56 -95 316 -444 336 -452 9 -3 29 -6 45 -6 26 0
29 -4 29 -30 0 -24 8 -35 39 -54 66 -42 69 -63 5 -43 -84 25 -314 280 -400
442 -95 179 -112 215 -101 215 2 0 23 -33 47 -72z m3189 -45 c-11 -31 -19 -66
-19 -77 0 -41 -14 -50 -56 -36 -51 16 -194 91 -194 102 0 4 25 8 56 8 54 0
172 29 204 50 27 17 28 11 9 -47z m728 -69 c-73 -165 -175 -318 -307 -458 -82
-88 -359 -326 -379 -326 -11 0 -8 5 7 16 15 10 22 25 22 48 0 28 11 42 80 105
44 39 104 105 135 145 30 41 70 85 87 99 18 13 58 65 88 115 30 50 60 91 66
92 12 0 84 79 178 198 33 40 61 71 63 69 2 -3 -16 -49 -40 -103z m-2659 70
c49 -6 52 -8 52 -36 0 -42 33 -54 106 -39 81 16 161 13 219 -9 28 -10 46 -19
40 -19 -5 -1 -64 -8 -129 -16 -133 -17 -152 -14 -271 37 -38 16 -104 38 -145
48 -73 17 -76 25 -15 33 52 7 88 7 143 1z m2062 -23 c6 -17 13 -44 13 -62 2
-29 -2 -33 -32 -41 -18 -5 -36 -7 -39 -4 -7 8 28 136 38 136 4 0 13 -13 20
-29z m-2706 -90 c13 -5 16 -10 8 -15 -11 -6 -52 9 -52 19 0 7 22 5 44 -4z
m359 -53 l52 -12 -70 -8 c-80 -10 -89 -7 -105 23 -12 21 -11 22 29 15 23 -3
65 -12 94 -18z m1854 0 c29 -13 53 -26 53 -30 0 -6 -109 38 -119 48 -11 10 19
2 66 -18z m-2091 -25 c-7 -7 -26 7 -26 19 0 6 6 6 15 -2 9 -7 13 -15 11 -17z
m1667 11 c43 -14 165 -113 126 -101 -10 3 -46 11 -80 17 -66 12 -229 78 -229
92 0 14 135 8 183 -8z m607 -6 c0 -13 -23 -5 -28 10 -2 7 2 10 12 6 9 -3 16
-11 16 -16z m-965 -18 l60 -28 -66 -1 c-57 -1 -68 2 -88 23 l-23 24 24 5 c12
2 25 5 28 5 3 0 32 -12 65 -28z m-224 -7 c13 -15 10 -15 -26 -9 -62 12 -77 25
-29 26 27 0 46 -6 55 -17z m1509 -19 c0 -10 -96 -127 -132 -160 -65 -62 -67
-61 -114 24 -23 43 -39 80 -36 84 17 16 114 42 182 48 41 4 81 7 88 8 6 1 12
-1 12 -4z m-2565 -98 l30 -17 -50 5 c-27 3 -80 8 -117 11 -37 4 -71 11 -74 17
-11 18 176 4 211 -16z m495 -11 c74 -8 169 -21 210 -30 87 -18 292 -76 287
-81 -2 -2 -37 3 -78 10 -90 18 -262 40 -468 61 -132 14 -211 32 -211 50 0 9
126 5 260 -10z m1733 -65 c22 -41 34 -71 26 -68 -111 46 -237 103 -248 114
-13 11 -8 13 35 8 33 -4 55 -1 67 8 9 7 31 13 48 12 28 -1 35 -8 72 -74z
m-593 30 c30 -15 102 -46 160 -70 104 -43 134 -59 127 -67 -7 -6 -400 140
-443 165 -41 25 101 -1 156 -28z m-442 -1 c48 -57 45 -59 -40 -27 -46 17 -92
33 -103 36 -16 5 -13 8 15 13 78 14 100 11 128 -22z m245 -63 c143 -60 360
-143 410 -156 26 -7 50 -16 52 -20 3 -4 -14 -15 -38 -24 -40 -15 -49 -15 -201
14 -87 17 -160 30 -162 30 -1 0 -4 14 -6 32 -2 26 -11 36 -41 52 -33 18 -118
106 -102 106 4 0 43 -15 88 -34z m-1208 -38 l20 -20 -20 5 c-11 3 -49 13 -85
22 -87 22 -88 27 -5 19 50 -4 76 -12 90 -26z m660 -59 c66 -12 183 -41 260
-65 77 -25 174 -53 215 -63 41 -10 89 -22 105 -26 l30 -8 -35 -8 c-19 -5 -75
-11 -125 -15 -123 -8 -372 31 -505 79 -84 31 -256 119 -282 145 -11 11 172
-11 337 -39z m1716 24 c-25 -36 -109 -118 -115 -112 -2 2 8 28 23 58 20 43 33
57 61 67 51 18 53 17 31 -13z m-501 -4 c28 -10 30 -13 15 -22 -13 -7 -22 -4
-38 12 -25 24 -22 25 23 10z m-2076 -55 c58 -27 127 -51 174 -60 183 -34 181
-33 208 -70 15 -19 25 -37 22 -39 -12 -12 -204 52 -368 125 -101 44 -186 83
-189 85 -2 3 9 5 26 5 17 0 74 -21 127 -46z m474 -19 c-9 -9 -56 9 -66 26 -12
19 -11 19 29 -1 22 -12 39 -23 37 -25z m142 -140 l55 -13 -66 -1 c-51 -1 -68
3 -73 14 -7 19 11 19 84 0z m1700 -35 c-20 -13 -60 -13 -60 0 0 6 17 10 38 10
27 0 33 -3 22 -10z m-1625 -145 c145 -25 326 -35 660 -34 182 0 488 -3 681 -7
l351 -7 -66 -57 c-36 -31 -72 -64 -80 -73 -17 -22 -126 -22 -536 -2 -165 8
-435 15 -600 15 l-300 0 -180 96 -180 95 85 -6 c47 -3 121 -12 165 -20z"/>
</g>
</svg>
